<?xml version="1.0" standalone="no"?>
<!DOCTYPE svg PUBLIC "-//W3C//DTD SVG 20010904//EN"
 "http://www.w3.org/TR/2001/REC-SVG-20010904/DTD/svg10.dtd">
<svg version="1.0" xmlns="http://www.w3.org/2000/svg"
 width="1000.000000pt" height="1000.000000pt" viewBox="0 0 1000.000000 1000.000000"
 preserveAspectRatio="xMidYMid meet">
<metadata>
Created by potrace 1.11, written by Peter Selinger 2001-2013
</metadata>
<g transform="translate(0.000000,1000.000000) scale(0.100000,-0.100000)"
fill="#000000" stroke="none">
<path d="M430 8847 c-86 -29 -144 -65 -203 -124 -77 -76 -129 -178 -143 -280
-10 -68 -11 -6754 -1 -6833 12 -99 65 -202 141 -277 70 -68 132 -103 222 -127
53 -14 196 -16 1374 -12 723 2 1335 6 1360 9 25 3 75 8 111 12 37 3 75 7 85 9
11 2 46 7 79 10 206 24 465 83 706 159 80 26 326 121 368 143 24 13 26 12 32
-10 26 -97 140 -231 237 -280 120 -60 -55 -56 2430 -56 1477 0 2288 4 2322 10
125 24 262 128 318 242 134 274 -21 603 -316 672 -51 12 -362 14 -2031 13
-1084 0 -1973 2 -1977 5 -3 4 -6 29 -6 57 1 48 3 52 85 138 395 414 670 892
860 1493 34 109 99 364 111 440 3 19 8 46 11 60 3 14 7 39 9 55 5 41 16 116
21 140 2 11 4 27 4 35 1 13 146 15 1244 16 1162 0 1246 1 1302 18 247 74 385
320 320 571 -47 179 -209 321 -390 342 -39 4 -611 8 -1272 8 l-1202 -1 -5 26
c-3 14 -8 50 -12 80 -3 30 -8 64 -10 75 -59 339 -170 716 -290 983 -137 304
-326 625 -479 811 -93 113 -150 178 -219 249 -78 80 -81 85 -87 140 -3 31 -5
58 -4 60 2 2 891 3 1976 2 2124 0 2047 -2 2150 50 284 143 343 527 117 750
-32 31 -80 69 -107 83 -109 60 32 57 -2433 57 -1622 0 -2272 -3 -2310 -11 -78
-17 -167 -63 -225 -117 -53 -50 -133 -164 -133 -191 -1 -41 -15 -44 -76 -16
-191 88 -511 192 -709 231 -11 2 -31 6 -45 9 -14 3 -50 9 -80 15 -30 6 -66 12
-80 15 -14 3 -43 8 -65 11 -22 2 -69 9 -105 14 -36 5 -99 12 -140 15 -41 4
-93 9 -115 12 -22 3 -629 7 -1350 9 l-1310 3 -65 -22z m2445 -921 c153 -8 204
-12 344 -32 207 -28 558 -117 686 -174 11 -5 56 -23 100 -41 140 -57 407 -203
500 -274 l30 -23 0 -2355 1 -2355 -96 -63 c-112 -73 -341 -194 -455 -240 -263
-105 -593 -190 -835 -215 -30 -3 -66 -7 -80 -9 -94 -14 -319 -18 -1098 -19
-501 -1 -886 2 -889 7 -4 7 -8 5646 -4 5774 1 18 8 22 44 25 78 6 1620 0 1752
-6z m2729 -2191 c14 -66 28 -142 32 -170 3 -27 8 -53 10 -56 1 -3 -20 -5 -49
-5 l-52 1 -2 240 -2 240 19 -65 c11 -36 31 -119 44 -185z m37 -1178 c4 -5 3
-25 -1 -46 -5 -20 -11 -54 -14 -76 -3 -22 -13 -74 -22 -115 -8 -41 -17 -83
-19 -92 -10 -48 -38 -138 -44 -138 -6 0 -3 447 3 466 5 12 88 13 97 1z"/>
</g>
</svg>
